<svg width="20" height="20" viewBox="0 0 20 20" fill="none" xmlns="http://www.w3.org/2000/svg">
<path d="M17.285 10.8708C16.7203 11.0208 16.1385 11.0967 15.5542 11.0966C13.775 11.0966 12.1042 10.405 10.8492 9.14997C10.025 8.32109 9.43255 7.29069 9.13077 6.16146C8.82898 5.03224 8.82843 3.84364 9.12917 2.71414C9.16673 2.57291 9.16649 2.4243 9.12848 2.2832C9.09046 2.14209 9.01602 2.01347 8.9126 1.91022C8.80919 1.80698 8.68044 1.73274 8.53928 1.69496C8.39811 1.65718 8.2495 1.65718 8.10833 1.69497C6.6943 2.07179 5.40422 2.81382 4.3675 3.84664C1.11917 7.09497 1.11917 12.3825 4.3675 15.6325C5.13961 16.4089 6.05803 17.0245 7.06962 17.4436C8.0812 17.8627 9.16587 18.077 10.2608 18.0741C11.3555 18.0772 12.4399 17.8631 13.4512 17.4441C14.4626 17.0251 15.3807 16.4096 16.1525 15.6333C17.1861 14.5964 17.9285 13.3056 18.305 11.8908C18.3424 11.7496 18.3421 11.6011 18.3041 11.4601C18.2661 11.3191 18.1918 11.1906 18.0885 11.0873C17.9852 10.984 17.8567 10.9097 17.7157 10.8717C17.5747 10.8337 17.4262 10.8334 17.285 10.8708ZM14.975 14.455C14.3575 15.0759 13.6229 15.5682 12.8139 15.9033C12.0049 16.2385 11.1374 16.4098 10.2617 16.4075C9.38566 16.4096 8.51791 16.2381 7.70861 15.9029C6.8993 15.5676 6.16449 15.0752 5.54667 14.4541C2.94833 11.855 2.94833 7.62497 5.54667 5.0258C6.04876 4.52428 6.62841 4.10698 7.26333 3.78997C7.1704 4.98919 7.33746 6.19433 7.75311 7.32304C8.16875 8.45176 8.82318 9.47743 9.67167 10.33C10.5223 11.1811 11.5477 11.8374 12.6769 12.2533C13.8061 12.6693 15.0121 12.835 16.2117 12.7391C15.8929 13.373 15.4755 13.9521 14.975 14.455Z" fill="#2E2E2E"/>
</svg>
